<svg width="287" height="286" viewBox="0 0 287 286" fill="none" xmlns="http://www.w3.org/2000/svg">
<g clip-path="url(#clip0_4_92)">
<rect x="0.5" y="-1.5" width="285" height="285" rx="48.5" fill="#525252" stroke="#525252" stroke-width="3"/>
<path d="M15.5 11L104 100L82.5 152.5L-62 125L64.5 162.5L55.5 202L94 248L66.5 288.5M150.5 288.5L144.5 259.5L189.5 242L213 218.5L244.5 248L258.5 288.5M82.5 288.5L105 252.5L127.5 259.5V288.5M298.5 71L244.5 82L193.5 160.5L226 173.5L294 152.5M298.5 180.5L244.5 188.5L253 224.5L277 279.5M174.5 -8.5L180 30L204.5 85.5L199 108L213 112L253 54L294 37M111.5 -8.5L127.5 25L111.5 85.5L26.5 -3M122 -8.5L135.5 17.5L144.5 6.5L165 25V-27.5" stroke="#151515" stroke-width="6"/>
<path d="M82.1258 192.527L79.991 195.894L82.0244 199.323C89.1307 211.307 96.4052 219.955 106.538 226.152C116.535 232.266 128.734 235.635 144.966 238.206L146.534 238.455L148.04 237.953C161.529 233.454 171.52 228.981 180.001 222.967C188.524 216.924 195.165 209.579 202.297 199.851L210.033 189.301L196.952 189.509C189.183 189.632 184.009 188.918 180.717 187.565C177.873 186.397 176.609 184.868 176.003 182.478C175.252 179.516 175.42 174.696 177.469 167.009C179.481 159.46 183.097 149.886 188.413 137.802L193.723 125.731L180.938 128.866L180.938 128.866L180.933 128.867C180.93 128.868 180.927 128.869 180.922 128.87C180.899 128.875 180.852 128.886 180.782 128.901C180.643 128.93 180.418 128.976 180.127 129.027C179.536 129.131 178.711 129.251 177.791 129.315C175.756 129.458 174.258 129.253 173.54 128.934C173.525 128.786 173.518 128.552 173.548 128.212C173.739 126.058 175.232 121.606 180.543 113.794C193.701 94.4368 186.642 75.2067 177.807 62.2098C173.348 55.65 168.201 50.2552 164.22 46.5278C162.217 44.6533 160.481 43.1738 159.231 42.1521C158.605 41.6407 158.1 41.2425 157.741 40.9652C157.561 40.8266 157.419 40.718 157.316 40.6406C157.265 40.6019 157.223 40.5709 157.192 40.5479L157.154 40.5192L157.14 40.5093L157.135 40.5055C157.133 40.5039 157.131 40.5024 153.279 45.7385L157.131 40.5024L149.912 35.1924L147.106 43.7033C116.017 138.007 98.7338 166.334 82.1258 192.527ZM173.578 129.145C173.578 129.145 173.575 129.138 173.571 129.123C173.577 129.137 173.579 129.145 173.578 129.145Z" fill="#525252" stroke="#151515" stroke-width="13"/>
</g>
<rect x="0.5" y="0.5" width="286" height="285" rx="49.5" stroke="#151515"/>
<defs>
<clipPath id="clip0_4_92">
<rect width="287" height="286" rx="50" fill="white"/>
</clipPath>
</defs>
</svg>
