<svg width="22" height="31" viewBox="0 0 22 31" fill="none" xmlns="http://www.w3.org/2000/svg">
<path d="M10.5947 29.6947L10.8359 29.7329L11.0675 29.6557C12.8649 29.0563 14.206 28.4571 15.3479 27.6474C16.4962 26.8332 17.3882 25.8451 18.34 24.547L19.53 22.9239L17.5177 22.9558C16.4909 22.9721 15.8266 22.8768 15.4158 22.7079C15.074 22.5675 14.9392 22.3965 14.8705 22.1253C14.7794 21.7661 14.7944 21.1535 15.0646 20.1399C15.3292 19.1475 15.8062 17.8835 16.5111 16.281L17.328 14.424L15.3617 14.9061L15.3615 14.9062L15.3604 14.9064L15.3602 14.9065L15.3439 14.9101C15.3268 14.9137 15.2986 14.9195 15.2617 14.926C15.1867 14.9391 15.0821 14.9543 14.9657 14.9625C14.7783 14.9756 14.6381 14.9646 14.5498 14.9473C14.5786 14.6889 14.7676 14.1241 15.4539 13.1146C17.2478 10.4755 16.2769 7.85585 15.0905 6.11047C14.4909 5.22835 13.7998 4.50427 13.2665 4.00496C12.998 3.75363 12.7651 3.55513 12.5971 3.41781C12.513 3.34906 12.4448 3.2954 12.3963 3.25788C12.372 3.23911 12.3526 3.22436 12.3385 3.21375L12.3214 3.20095L12.316 3.19691L12.3141 3.19549L12.3133 3.19492C12.313 3.19468 12.3127 3.19446 11.7201 4L12.3127 3.19446L11.1103 2.31002L10.7497 3.75845C9.03538 10.6455 7.71824 15.1397 6.4267 18.1123C5.14262 21.0678 3.94677 22.3694 2.55544 23.0599L1.59028 23.5389L2.13985 24.4657C3.08991 26.0679 4.06993 27.2366 5.44158 28.0755C6.79216 28.9016 8.43352 29.3523 10.5947 29.6947ZM14.5477 15.0412C14.5477 15.0412 14.5475 15.0406 14.5473 15.0394L14.5477 15.0412Z" stroke="#8060D3" stroke-width="2"/>
</svg>
