<svg id="Camada_1" data-name="Camada 1" xmlns="http://www.w3.org/2000/svg" viewBox="0 0 373.4 523.32"><defs><style>.cls-1{fill:#cd5c08;}</style></defs><path class="cls-1" d="M441,350.33c-7.95,0-9.65-2.85-6.11-9.84q19.77-39,39.52-77.92c.63-1.24,1.05-2.59,1.8-4.49h-6.74c-22.34,0-44.69-.56-67,.17-19,.62-32.44-17.51-23.25-35.49,5.82-11.36,8.69-23.85,9.49-36.51,2.61-40.84-11.55-74.76-43.25-100.93-13.24-10.92-26.84-21.4-40.28-32.07-6.1-4.84-12.22-9.65-18.73-14.79a38.94,38.94,0,0,0-1.09,3.84c-2,12.14-3.79,24.31-6,36.42-13.32,74.22-42.9,141.37-88,201.68A460.75,460.75,0,0,1,113,362.09v1c1.09,3.26,2.28,6.5,3.25,9.8,27.26,93,85.56,156.7,177.88,188.14a13.53,13.53,0,0,0,8.13.23A276.21,276.21,0,0,0,415,488.73c36.25-38.39,58.43-84.17,71.08-135a33.86,33.86,0,0,0,.37-3.4C470.9,350.35,455.93,350.39,441,350.33Zm-5.8,46.44Q394.28,485.93,303.88,524a13.86,13.86,0,0,1-11.4.14C224,496.75,178.4,447.64,153.87,378.4c-1.29-3.62-.38-5.57,2.31-8.06Q272.92,261.82,308.94,106.49c.32-1.4.89-2.75,1.37-4.18,28.06,17.57,45.43,43.53,44.17,77.26a84.94,84.94,0,0,1-7.6,31.31c-15.28,34.76,4.93,73.58,42.23,80.53,7.45,1.38,15.28.74,22.93,1,2.44.08,4.88,0,8.39,0-4.11,8.21-7.87,15.34-11.3,22.64s-7.95,14.57-9.58,22.36c-5.18,24.73,11.79,45.81,37.12,47.42.81.05,1.62.13,3.31.26C438.25,389.28,436.83,393.08,435.15,396.77Z" transform="translate(-113 -38.46)"/></svg>