<svg width="43" height="63" viewBox="0 0 43 63" fill="none" xmlns="http://www.w3.org/2000/svg">
<path d="M20.6871 59.9754L21.1694 60.0518L21.6327 59.8973C25.34 58.6611 28.1015 57.4265 30.4512 55.7604C32.8138 54.0851 34.6504 52.0516 36.6129 49.3749L38.993 46.1287L34.9683 46.1926C32.8464 46.2262 31.4645 46.0297 30.6041 45.6761C29.8819 45.3793 29.5881 45.0113 29.4407 44.4299C29.2486 43.6725 29.2831 42.395 29.8417 40.2993C30.3891 38.246 31.3751 35.6334 32.8307 32.3246L34.4645 28.6105L30.5314 29.5749C30.5318 29.5748 30.5318 29.5748 30.5314 29.5749C30.531 29.575 30.5299 29.5753 30.5289 29.5755C30.5287 29.5756 30.5289 29.5755 30.5286 29.5756C30.5267 29.576 30.524 29.5766 30.5205 29.5774C30.5141 29.5788 30.5051 29.5808 30.4936 29.5833C30.4577 29.591 30.3987 29.6029 30.3217 29.6165C30.1653 29.644 29.947 29.6757 29.704 29.6927C29.2758 29.7227 28.9593 29.6928 28.7717 29.6479C28.7722 29.6412 28.7728 29.6342 28.7734 29.6271C28.8207 29.094 29.2037 27.9119 30.6541 25.7782C34.3352 20.3627 32.3468 14.9862 29.9041 11.3925C28.6698 9.57679 27.2469 8.08574 26.1481 7.0571C25.5952 6.53943 25.1154 6.13063 24.7696 5.84794C24.5964 5.70643 24.4562 5.59603 24.3564 5.51891C24.3065 5.48033 24.2667 5.45004 24.2378 5.42829L24.2029 5.40211L24.1918 5.39387L24.1879 5.39098L24.1863 5.38985C24.1857 5.38936 24.1851 5.38892 23 7L24.1851 5.38892L21.9639 3.75506L21.1006 6.37381C12.5833 32.2096 7.85285 39.9581 3.31092 47.1213L2.65405 48.1573L3.27971 49.2124C5.23782 52.5146 7.25423 54.9174 10.0734 56.6417C12.8504 58.3402 16.2285 59.269 20.6871 59.9754ZM28.774 29.8047C28.7739 29.8047 28.7735 29.8032 28.773 29.8C28.7738 29.803 28.774 29.8046 28.774 29.8047Z" stroke="#FFF5E4" stroke-width="4"/>
</svg>
