<svg width="1280" height="832" viewBox="0 0 1280 832" fill="none" xmlns="http://www.w3.org/2000/svg">
<path d="M267.738 -178H2C0.895431 -178 0 -177.105 0 -176V184C0 185.105 0.895405 186 1.99997 186H1337C1338.1 186 1339 185.105 1339 184V-350.5C1339 -351.605 1338.1 -352.5 1337 -352.5H1258.91C1257.8 -352.5 1256.91 -351.605 1256.91 -350.5V-234.5C1256.91 -233.395 1256.01 -232.5 1254.91 -232.5H1182.42C1181.32 -232.5 1180.42 -233.395 1180.42 -234.5V-290.5C1180.42 -291.605 1179.53 -292.5 1178.42 -292.5H1082.99C1081.89 -292.5 1080.99 -291.605 1080.99 -290.5V-110.5C1080.99 -109.395 1080.09 -108.5 1078.99 -108.5H1000.9C999.791 -108.5 998.896 -109.395 998.896 -110.5V-219C998.896 -220.105 998.001 -221 996.896 -221H927.98C926.876 -221 925.98 -221.895 925.98 -223V-435C925.98 -436.105 925.085 -437 923.98 -437H853.535C852.43 -437 851.535 -436.105 851.535 -435V-153.5C851.535 -152.395 850.639 -151.5 849.535 -151.5H795.916C794.811 -151.5 793.916 -152.395 793.916 -153.5V-290.5C793.916 -291.605 793.02 -292.5 791.916 -292.5H706.173C705.069 -292.5 704.173 -293.395 704.173 -294.5V-369C704.173 -370.105 703.278 -371 702.173 -371H614.391C613.286 -371 612.391 -370.105 612.391 -369V-54C612.391 -52.8954 611.496 -52 610.391 -52H516.49C515.385 -52 514.49 -52.8954 514.49 -54V-326C514.49 -327.105 513.595 -328 512.49 -328H426.748C425.643 -328 424.748 -327.105 424.748 -326V-110.5C424.748 -109.395 423.852 -108.5 422.748 -108.5H355.871C354.767 -108.5 353.871 -107.605 353.871 -106.5V-5.5C353.871 -4.39542 352.976 -3.5 351.871 -3.5H271.738C270.633 -3.5 269.738 -4.39542 269.738 -5.5V-176C269.738 -177.105 268.842 -178 267.738 -178Z" fill="#151515" stroke="#151515" stroke-width="3"/>
<path d="M256.457 -125H2C0.89543 -125 0 -124.105 0 -123V237C0 238.105 0.895423 239 1.99999 239H1281C1282.1 239 1283 238.105 1283 237V-297.5C1283 -298.605 1282.1 -299.5 1281 -299.5H1206.34C1205.23 -299.5 1204.34 -298.605 1204.34 -297.5V-181.5C1204.34 -180.395 1203.44 -179.5 1202.34 -179.5H1133.05C1131.95 -179.5 1131.05 -180.395 1131.05 -181.5V-237.5C1131.05 -238.605 1130.16 -239.5 1129.05 -239.5H1037.78C1036.68 -239.5 1035.78 -238.605 1035.78 -237.5V-57.5C1035.78 -56.3954 1034.89 -55.5 1033.78 -55.5H959.12C958.015 -55.5 957.12 -56.3954 957.12 -57.5V-166C957.12 -167.105 956.225 -168 955.12 -168H889.254C888.149 -168 887.254 -168.895 887.254 -170V-382C887.254 -383.105 886.358 -384 885.254 -384H817.922C816.817 -384 815.922 -383.105 815.922 -382V-100.5C815.922 -99.3954 815.026 -98.5 813.922 -98.5H762.713C761.608 -98.5 760.713 -99.3954 760.713 -100.5V-237.5C760.713 -238.605 759.817 -239.5 758.713 -239.5H676.723C675.619 -239.5 674.723 -240.395 674.723 -241.5V-316C674.723 -317.105 673.828 -318 672.723 -318H588.78C587.675 -318 586.78 -317.105 586.78 -316V-1C586.78 0.104584 585.884 1 584.78 1H494.973C493.868 1 492.973 0.104584 492.973 -1V-273C492.973 -274.105 492.078 -275 490.973 -275H408.984C407.879 -275 406.984 -274.105 406.984 -273V-57.5C406.984 -56.3954 406.088 -55.5 404.984 -55.5H341.072C339.967 -55.5 339.072 -54.6046 339.072 -53.5V47.5C339.072 48.6046 338.176 49.5 337.072 49.5H260.457C259.352 49.5 258.457 48.6046 258.457 47.5V-123C258.457 -124.105 257.561 -125 256.457 -125Z" fill="#FFF5E4" stroke="#FFF5E4" stroke-width="3"/>
<path d="M237.5 18H-23C-24.1046 18 -25 18.8954 -25 20V380C-25 381.105 -24.1045 382 -23 382H1286C1287.1 382 1288 381.105 1288 380V-154.5C1288 -155.605 1287.1 -156.5 1286 -156.5H1209.5C1208.4 -156.5 1207.5 -155.605 1207.5 -154.5V-38.5C1207.5 -37.3954 1206.6 -36.5 1205.5 -36.5H1134.5C1133.4 -36.5 1132.5 -37.3954 1132.5 -38.5V-94.5C1132.5 -95.6046 1131.6 -96.5 1130.5 -96.5H1037C1035.9 -96.5 1035 -95.6046 1035 -94.5V85.5C1035 86.6046 1034.1 87.5 1033 87.5H956.5C955.395 87.5 954.5 86.6046 954.5 85.5V-23C954.5 -24.1046 953.605 -25 952.5 -25H885C883.895 -25 883 -25.8954 883 -27V-239C883 -240.105 882.105 -241 881 -241H812C810.895 -241 810 -240.105 810 -239V42.5C810 43.6046 809.105 44.5 808 44.5H755.5C754.395 44.5 753.5 43.6046 753.5 42.5V-94.5C753.5 -95.6046 752.605 -96.5 751.5 -96.5H667.5C666.395 -96.5 665.5 -97.3954 665.5 -98.5V-173C665.5 -174.105 664.605 -175 663.5 -175H577.5C576.395 -175 575.5 -174.105 575.5 -173V142C575.5 143.105 574.605 144 573.5 144H481.5C480.395 144 479.5 143.105 479.5 142V-130C479.5 -131.105 478.605 -132 477.5 -132H393.5C392.395 -132 391.5 -131.105 391.5 -130V85.5C391.5 86.6046 390.605 87.5 389.5 87.5H324C322.895 87.5 322 88.3954 322 89.5V190.5C322 191.605 321.105 192.5 320 192.5H241.5C240.395 192.5 239.5 191.605 239.5 190.5V20C239.5 18.8954 238.605 18 237.5 18Z" fill="#151515" stroke="#151515" stroke-width="3"/>
<path d="M267.738 192H2C0.895431 192 0 192.895 0 194V554C0 555.105 0.895405 556 1.99997 556H1337C1338.1 556 1339 555.105 1339 554V19.5C1339 18.3954 1338.1 17.5 1337 17.5H1258.91C1257.8 17.5 1256.91 18.3954 1256.91 19.5V135.5C1256.91 136.605 1256.01 137.5 1254.91 137.5H1182.42C1181.32 137.5 1180.42 136.605 1180.42 135.5V79.5C1180.42 78.3954 1179.53 77.5 1178.42 77.5H1082.99C1081.89 77.5 1080.99 78.3954 1080.99 79.5V259.5C1080.99 260.605 1080.09 261.5 1078.99 261.5H1000.9C999.791 261.5 998.896 260.605 998.896 259.5V151C998.896 149.895 998.001 149 996.896 149H927.98C926.876 149 925.98 148.105 925.98 147V-65C925.98 -66.1046 925.085 -67 923.98 -67H853.535C852.43 -67 851.535 -66.1046 851.535 -65V216.5C851.535 217.605 850.639 218.5 849.535 218.5H795.916C794.811 218.5 793.916 217.605 793.916 216.5V79.5C793.916 78.3954 793.02 77.5 791.916 77.5H706.173C705.069 77.5 704.173 76.6046 704.173 75.5V1C704.173 -0.104568 703.278 -1 702.173 -1H614.391C613.286 -1 612.391 -0.104576 612.391 0.999992V316C612.391 317.105 611.496 318 610.391 318H516.49C515.385 318 514.49 317.105 514.49 316V44C514.49 42.8954 513.595 42 512.49 42H426.748C425.643 42 424.748 42.8954 424.748 44V259.5C424.748 260.605 423.852 261.5 422.748 261.5H355.871C354.767 261.5 353.871 262.395 353.871 263.5V364.5C353.871 365.605 352.976 366.5 351.871 366.5H271.738C270.633 366.5 269.738 365.605 269.738 364.5V194C269.738 192.895 268.842 192 267.738 192Z" fill="#FFF5E4" stroke="#FFF5E4" stroke-width="3"/>
<path d="M256.457 245H2C0.89543 245 0 245.895 0 247V607C0 608.105 0.895423 609 1.99999 609H1281C1282.1 609 1283 608.105 1283 607V72.5C1283 71.3954 1282.1 70.5 1281 70.5H1206.34C1205.23 70.5 1204.34 71.3954 1204.34 72.5V188.5C1204.34 189.605 1203.44 190.5 1202.34 190.5H1133.05C1131.95 190.5 1131.05 189.605 1131.05 188.5V132.5C1131.05 131.395 1130.16 130.5 1129.05 130.5H1037.78C1036.68 130.5 1035.78 131.395 1035.78 132.5V312.5C1035.78 313.605 1034.89 314.5 1033.78 314.5H959.12C958.015 314.5 957.12 313.605 957.12 312.5V204C957.12 202.895 956.225 202 955.12 202H889.254C888.149 202 887.254 201.105 887.254 200V-12C887.254 -13.1046 886.358 -14 885.254 -14H817.922C816.817 -14 815.922 -13.1046 815.922 -12V269.5C815.922 270.605 815.026 271.5 813.922 271.5H762.713C761.608 271.5 760.713 270.605 760.713 269.5V132.5C760.713 131.395 759.817 130.5 758.713 130.5H676.723C675.619 130.5 674.723 129.605 674.723 128.5V54C674.723 52.8954 673.828 52 672.723 52H588.78C587.675 52 586.78 52.8954 586.78 54V369C586.78 370.105 585.884 371 584.78 371H494.973C493.868 371 492.973 370.105 492.973 369V97C492.973 95.8954 492.078 95 490.973 95H408.984C407.879 95 406.984 95.8954 406.984 97V312.5C406.984 313.605 406.088 314.5 404.984 314.5H341.072C339.967 314.5 339.072 315.395 339.072 316.5V417.5C339.072 418.605 338.176 419.5 337.072 419.5H260.457C259.352 419.5 258.457 418.605 258.457 417.5V247C258.457 245.895 257.561 245 256.457 245Z" fill="#151515" stroke="#151515" stroke-width="3"/>
<path d="M237.5 388H-23C-24.1046 388 -25 388.895 -25 390V750C-25 751.105 -24.1045 752 -23 752H1286C1287.1 752 1288 751.105 1288 750V215.5C1288 214.395 1287.1 213.5 1286 213.5H1209.5C1208.4 213.5 1207.5 214.395 1207.5 215.5V331.5C1207.5 332.605 1206.6 333.5 1205.5 333.5H1134.5C1133.4 333.5 1132.5 332.605 1132.5 331.5V275.5C1132.5 274.395 1131.6 273.5 1130.5 273.5H1037C1035.9 273.5 1035 274.395 1035 275.5V455.5C1035 456.605 1034.1 457.5 1033 457.5H956.5C955.395 457.5 954.5 456.605 954.5 455.5V347C954.5 345.895 953.605 345 952.5 345H885C883.895 345 883 344.105 883 343V131C883 129.895 882.105 129 881 129H812C810.895 129 810 129.895 810 131V412.5C810 413.605 809.105 414.5 808 414.5H755.5C754.395 414.5 753.5 413.605 753.5 412.5V275.5C753.5 274.395 752.605 273.5 751.5 273.5H667.5C666.395 273.5 665.5 272.605 665.5 271.5V197C665.5 195.895 664.605 195 663.5 195H577.5C576.395 195 575.5 195.895 575.5 197V512C575.5 513.105 574.605 514 573.5 514H481.5C480.395 514 479.5 513.105 479.5 512V240C479.5 238.895 478.605 238 477.5 238H393.5C392.395 238 391.5 238.895 391.5 240V455.5C391.5 456.605 390.605 457.5 389.5 457.5H324C322.895 457.5 322 458.395 322 459.5V560.5C322 561.605 321.105 562.5 320 562.5H241.5C240.395 562.5 239.5 561.605 239.5 560.5V390C239.5 388.895 238.605 388 237.5 388Z" fill="#FFF5E4" stroke="#FFF5E4" stroke-width="3"/>
<path d="M267.738 403H2C0.895431 403 0 403.895 0 405V765C0 766.105 0.895405 767 1.99997 767H1337C1338.1 767 1339 766.105 1339 765V230.5C1339 229.395 1338.1 228.5 1337 228.5H1258.91C1257.8 228.5 1256.91 229.395 1256.91 230.5V346.5C1256.91 347.605 1256.01 348.5 1254.91 348.5H1182.42C1181.32 348.5 1180.42 347.605 1180.42 346.5V290.5C1180.42 289.395 1179.53 288.5 1178.42 288.5H1082.99C1081.89 288.5 1080.99 289.395 1080.99 290.5V470.5C1080.99 471.605 1080.09 472.5 1078.99 472.5H1000.9C999.791 472.5 998.896 471.605 998.896 470.5V362C998.896 360.895 998.001 360 996.896 360H927.98C926.876 360 925.98 359.105 925.98 358V146C925.98 144.895 925.085 144 923.98 144H853.535C852.43 144 851.535 144.895 851.535 146V427.5C851.535 428.605 850.639 429.5 849.535 429.5H795.916C794.811 429.5 793.916 428.605 793.916 427.5V290.5C793.916 289.395 793.02 288.5 791.916 288.5H706.173C705.069 288.5 704.173 287.605 704.173 286.5V212C704.173 210.895 703.278 210 702.173 210H614.391C613.286 210 612.391 210.895 612.391 212V527C612.391 528.105 611.496 529 610.391 529H516.49C515.385 529 514.49 528.105 514.49 527V255C514.49 253.895 513.595 253 512.49 253H426.748C425.643 253 424.748 253.895 424.748 255V470.5C424.748 471.605 423.852 472.5 422.748 472.5H355.871C354.767 472.5 353.871 473.395 353.871 474.5V575.5C353.871 576.605 352.976 577.5 351.871 577.5H271.738C270.633 577.5 269.738 576.605 269.738 575.5V405C269.738 403.895 268.842 403 267.738 403Z" fill="#151515" stroke="#151515" stroke-width="3"/>
<path d="M256.457 456H2C0.895431 456 0 456.895 0 458V818C0 819.105 0.895423 820 1.99999 820H1281C1282.1 820 1283 819.105 1283 818V283.5C1283 282.395 1282.1 281.5 1281 281.5H1206.34C1205.23 281.5 1204.34 282.395 1204.34 283.5V399.5C1204.34 400.605 1203.44 401.5 1202.34 401.5H1133.05C1131.95 401.5 1131.05 400.605 1131.05 399.5V343.5C1131.05 342.395 1130.16 341.5 1129.05 341.5H1037.78C1036.68 341.5 1035.78 342.395 1035.78 343.5V523.5C1035.78 524.605 1034.89 525.5 1033.78 525.5H959.12C958.015 525.5 957.12 524.605 957.12 523.5V415C957.12 413.895 956.225 413 955.12 413H889.254C888.149 413 887.254 412.105 887.254 411V199C887.254 197.895 886.358 197 885.254 197H817.922C816.817 197 815.922 197.895 815.922 199V480.5C815.922 481.605 815.026 482.5 813.922 482.5H762.713C761.608 482.5 760.713 481.605 760.713 480.5V343.5C760.713 342.395 759.817 341.5 758.713 341.5H676.723C675.619 341.5 674.723 340.605 674.723 339.5V265C674.723 263.895 673.828 263 672.723 263H588.78C587.675 263 586.78 263.895 586.78 265V580C586.78 581.105 585.884 582 584.78 582H494.973C493.868 582 492.973 581.105 492.973 580V308C492.973 306.895 492.078 306 490.973 306H408.984C407.879 306 406.984 306.895 406.984 308V523.5C406.984 524.605 406.088 525.5 404.984 525.5H341.072C339.967 525.5 339.072 526.395 339.072 527.5V628.5C339.072 629.605 338.176 630.5 337.072 630.5H260.457C259.352 630.5 258.457 629.605 258.457 628.5V458C258.457 456.895 257.561 456 256.457 456Z" fill="#FFF5E4" stroke="#FFF5E4" stroke-width="3"/>
<path d="M237.5 599H-23C-24.1046 599 -25 599.895 -25 601V961C-25 962.105 -24.1045 963 -23 963H1286C1287.1 963 1288 962.105 1288 961V426.5C1288 425.395 1287.1 424.5 1286 424.5H1209.5C1208.4 424.5 1207.5 425.395 1207.5 426.5V542.5C1207.5 543.605 1206.6 544.5 1205.5 544.5H1134.5C1133.4 544.5 1132.5 543.605 1132.5 542.5V486.5C1132.5 485.395 1131.6 484.5 1130.5 484.5H1037C1035.9 484.5 1035 485.395 1035 486.5V666.5C1035 667.605 1034.1 668.5 1033 668.5H956.5C955.395 668.5 954.5 667.605 954.5 666.5V558C954.5 556.895 953.605 556 952.5 556H885C883.895 556 883 555.105 883 554V342C883 340.895 882.105 340 881 340H812C810.895 340 810 340.895 810 342V623.5C810 624.605 809.105 625.5 808 625.5H755.5C754.395 625.5 753.5 624.605 753.5 623.5V486.5C753.5 485.395 752.605 484.5 751.5 484.5H667.5C666.395 484.5 665.5 483.605 665.5 482.5V408C665.5 406.895 664.605 406 663.5 406H577.5C576.395 406 575.5 406.895 575.5 408V723C575.5 724.105 574.605 725 573.5 725H481.5C480.395 725 479.5 724.105 479.5 723V451C479.5 449.895 478.605 449 477.5 449H393.5C392.395 449 391.5 449.895 391.5 451V666.5C391.5 667.605 390.605 668.5 389.5 668.5H324C322.895 668.5 322 669.395 322 670.5V771.5C322 772.605 321.105 773.5 320 773.5H241.5C240.395 773.5 239.5 772.605 239.5 771.5V601C239.5 599.895 238.605 599 237.5 599Z" fill="#151515" stroke="#151515" stroke-width="3"/>
<path d="M556.457 876H302C300.895 876 300 876.895 300 878V1238C300 1239.1 300.895 1240 302 1240H1581C1582.1 1240 1583 1239.1 1583 1238V703.5C1583 702.395 1582.1 701.5 1581 701.5H1506.34C1505.23 701.5 1504.34 702.395 1504.34 703.5V819.5C1504.34 820.605 1503.44 821.5 1502.34 821.5H1433.05C1431.95 821.5 1431.05 820.605 1431.05 819.5V763.5C1431.05 762.395 1430.16 761.5 1429.05 761.5H1337.78C1336.68 761.5 1335.78 762.395 1335.78 763.5V943.5C1335.78 944.605 1334.89 945.5 1333.78 945.5H1259.12C1258.02 945.5 1257.12 944.605 1257.12 943.5V835C1257.12 833.895 1256.22 833 1255.12 833H1189.25C1188.15 833 1187.25 832.105 1187.25 831V619C1187.25 617.895 1186.36 617 1185.25 617H1117.92C1116.82 617 1115.92 617.895 1115.92 619V900.5C1115.92 901.605 1115.03 902.5 1113.92 902.5H1062.71C1061.61 902.5 1060.71 901.605 1060.71 900.5V763.5C1060.71 762.395 1059.82 761.5 1058.71 761.5H976.723C975.619 761.5 974.723 760.605 974.723 759.5V685C974.723 683.895 973.828 683 972.723 683H888.78C887.675 683 886.78 683.895 886.78 685V1000C886.78 1001.1 885.884 1002 884.78 1002H794.973C793.868 1002 792.973 1001.1 792.973 1000V728C792.973 726.895 792.078 726 790.973 726H708.984C707.879 726 706.984 726.895 706.984 728V943.5C706.984 944.605 706.088 945.5 704.984 945.5H641.072C639.967 945.5 639.072 946.395 639.072 947.5V1048.5C639.072 1049.6 638.176 1050.5 637.072 1050.5H560.457C559.352 1050.5 558.457 1049.6 558.457 1048.5V878C558.457 876.895 557.561 876 556.457 876Z" fill="#FFF5E4" stroke="#FFF5E4" stroke-width="3"/>
<path d="M624.337 791.544L622.878 792.263L623.712 793.659C625.648 796.899 627.614 799.211 630.338 800.865C633.03 802.5 636.33 803.409 640.767 804.107L641.126 804.163L641.471 804.049C645.157 802.829 647.865 801.623 650.158 800.009C652.46 798.388 654.26 796.415 656.207 793.781L658.008 791.342L654.976 791.39C652.836 791.423 651.369 791.23 650.41 790.839C649.555 790.49 649.144 790.009 648.955 789.271C648.733 788.401 648.793 787.037 649.358 784.932C649.915 782.859 650.912 780.239 652.371 776.947L653.606 774.161L650.65 774.88L650.649 774.881L650.649 774.881L650.647 774.881L650.646 774.881L650.643 774.882C650.635 774.884 650.621 774.887 650.6 774.891C650.559 774.9 650.494 774.913 650.41 774.928C650.241 774.957 650.004 774.991 649.74 775.01C649.15 775.051 648.666 774.995 648.407 774.869C648.356 774.844 648.33 774.824 648.319 774.814C648.309 774.805 648.307 774.801 648.305 774.798C648.303 774.794 648.291 774.772 648.281 774.719C648.271 774.663 648.262 774.567 648.275 774.419C648.334 773.765 648.775 772.508 650.238 770.372C653.755 765.235 651.883 760.127 649.488 756.629C648.28 754.865 646.884 753.413 645.802 752.407C645.259 751.902 644.787 751.503 644.449 751.229C644.28 751.091 644.143 750.984 644.046 750.91C643.998 750.873 643.96 750.845 643.933 750.824L643.9 750.8L643.89 750.793L643.887 750.79L643.886 750.789C643.885 750.789 643.885 750.789 643 752L643.885 750.789L642.087 749.476L641.545 751.635C638.007 765.745 635.279 774.994 632.592 781.131C629.918 787.242 627.379 790.045 624.337 791.544Z" stroke="#FFF5E4" stroke-width="3"/>
</svg>
